<svg xmlns="http://www.w3.org/2000/svg" viewBox="0 0 276.69 295.71"><defs><style>.cls-1{fill:#ba181b;}</style></defs><g id="Layer_2" data-name="Layer 2"><g id="Capa_1" data-name="Capa 1"><path class="cls-1" d="M272.6,72.91a14.74,14.74,0,0,0-20.84-.46l-5.07,4.85A43.79,43.79,0,0,1,252,106l-1.32,8.27,21.42-20.49A14.75,14.75,0,0,0,272.6,72.91Z"/><path class="cls-1" d="M118,178.68a23.65,23.65,0,0,0-15.67,8.37L45,257a23.7,23.7,0,0,0,36.64,30.08l48.12-58.64,25.44,5.7-29.37-35.3A34.12,34.12,0,0,1,118,178.68Z"/><path class="cls-1" d="M212.14,75.59A23.72,23.72,0,0,0,185,95.24l-9.09,56.84a36,36,0,0,1,2.79,2.74L216.24,200l15.56-97.23A23.7,23.7,0,0,0,212.14,75.59Z"/><path class="cls-1" d="M182.06,63.59a33.28,33.28,0,0,0,15.54,4,34.2,34.2,0,1,0-15.54-4Z"/><path class="cls-1" d="M163.59,167.39a14.74,14.74,0,0,0-22.66,18.85l85.14,102.33a14.74,14.74,0,0,0,22.66-18.85Z"/><path class="cls-1" d="M147.35,73.67a73.68,73.68,0,1,0-73.68,73.68A73.67,73.67,0,0,0,147.35,73.67Z"/></g></g></svg>