<svg xmlns="http://www.w3.org/2000/svg" viewBox="0 0 925.71 1080"><defs><style>.cls-1{fill:#ba181b;}</style></defs><g id="Layer_2" data-name="Layer 2"><g id="svg2"><path id="fuel" class="cls-1" d="M754.55,0,706.34,55.45,798,139.82c2.79,2.79,6.6,6.53,9.64,9.64l-19.29,21.7c-30.87,30.87-8.72,70.83,2.41,82L848.57,311V771.43c0,77.14-30.25,77.14-38.57,77.14s-38.57,0-38.57-77.14V462.86c0-98.82-77.14-154.29-154.29-154.29V154.29c0-42.53-32.76-77.15-77.14-77.15H77.14C30.92,77.14,0,109.91,0,154.29V1080H617.14V385.71s77.15,0,77.15,77.15V771.43c0,154.28,95.63,154.28,115.71,154.28,21.26,0,115.71,0,115.71-154.28v-540c0-77.14-22.06-93.28-48.21-118.13ZM77.14,231.43H540V462.86H77.14Z"/></g></g></svg>