<svg xmlns="http://www.w3.org/2000/svg" viewBox="0 0 172 188.9"><defs><style>.cls-1{fill:#ba181b;}</style></defs><g id="Layer_2" data-name="Layer 2"><g id="Capa_1" data-name="Capa 1"><path class="cls-1" d="M166.42,113.48c-21.77,11.73-23.85-9.64-23.85-9.64-18-2.08-31.4-22.2-31.4-22.2-24.32,12.57-10.76,48-.28,61.61,13.46,17.43,3.6,45.65,3.6,45.65s-54.9-4.44-82.93-39.65C10.52,122.82,16,97.83,22,81.33c7.21-19.82,17-30.7,31.16-42.27,21.12-17.22,60.14-19.37,60.14-19.37.25-1.46,1.45-3.17,3-4.93a166.16,166.16,0,0,0-17,1.38C94.8,17,89.87,17.49,84.88,19a107.6,107.6,0,0,0-15.58,4.9,111.8,111.8,0,0,0-15.62,7.69c-4.88,3.41-10.06,6.54-14.16,11-4.7,3.83-8.13,8.81-11.65,13.59-3.67,4.68-5.47,10.4-8.22,15.32-2,5.25-3.18,10.66-4.72,15.62-1.38,5-1.36,10-2.07,14.48a57.61,57.61,0,0,0-.7,12.33c.12,3.69.19,6.92.28,9.56.16,5.3.25,8.34.25,8.34l-.73.06s-.63-3-1.45-8.31c-.4-2.66-.89-5.93-1.41-9.67a45.37,45.37,0,0,1-.48-12.73c.27-3.38.32-7,.63-10.8l-8.8-.19,9-11L0,77.76,13.52,67.4,3.59,64.24l14-7.66L7,53.43l18.26-5.87L12.62,44l20.51-5.65L21.87,33.14,42.6,30.43,32.46,24.57l25.31-2.65.35-.15-11.69-5.3L73,14.22,60.84,7.9l50.32,4c2.72.12,5.09.34,7.26.57C124.88,6.27,135,0,135,0c-2.1,2.08-2.93,13.41-2.93,13.41,2.09-3.79,8.79-7.55,8.79-7.55-3.76,8.79,0,27.63,0,27.63,10.9,10.9,23,48.58,23,48.58l4.62,6.69C174.39,97.16,172.24,110.34,166.42,113.48Z"/></g></g></svg>