<svg xmlns="http://www.w3.org/2000/svg" viewBox="0 0 48 48"><defs><style>.cls-1{fill:#ba181b;}</style></defs><g id="Layer_2" data-name="Layer 2"><g id="Layer_1-2" data-name="Layer 1"><path class="cls-1" d="M24,0c3,0,5.43,3.29,8.09,4.42s6.82.51,8.84,2.65,1.51,6.07,2.65,8.84S48,21,48,24s-3.29,5.43-4.42,8.09-.51,6.82-2.65,8.84-6.07,1.53-8.84,2.65S27,48,24,48s-5.43-3.29-8.09-4.42-6.82-.51-8.84-2.65-1.53-6.07-2.65-8.84S0,27,0,24s3.29-5.43,4.42-8.09.51-6.82,2.65-8.84,6.07-1.53,8.84-2.65S21,0,24,0Zm0,7.58A16.42,16.42,0,1,0,40.42,24h0A16.47,16.47,0,0,0,24,7.58Zm7.62,9.15,1.61,1.52a1.25,1.25,0,0,1,0,1.51L23.08,31.07a2.07,2.07,0,0,1-1.61.7,2.23,2.23,0,0,1-1.61-.7L14.37,25.6a1,1,0,0,1-.11-1.41h0l.1-.11L16,22.56a1.1,1.1,0,0,1,1.54-.07l.07.07,3.89,4,8.59-9.8A1.11,1.11,0,0,1,31.62,16.73Z"/></g></g></svg>